<svg width="162" height="26" viewBox="0 0 162 26" fill="none" xmlns="http://www.w3.org/2000/svg">
    <path d="M12.1934 6.37807L6.78915 13.6566H4.87734V0H0V25.4372H4.87734V17.2583H6.78317L12.1934 25.4372H17.3333V24.8745L10.5347 15.3002L17.2583 6.90332V6.37807H12.1934Z" fill="black"/>
    <path fill-rule="evenodd" clip-rule="evenodd" d="M28.791 26C26.8651 26 25.1642 25.5623 23.6885 24.6869C22.2128 23.8114 21.0498 22.6234 20.1994 21.1227C19.3489 19.6219 18.9237 17.9086 18.9237 15.9827C18.9237 14.0818 19.3364 12.381 20.1618 10.8802C21.0122 9.3545 22.1753 8.16643 23.651 7.31602C25.1517 6.4406 26.8651 6.00289 28.791 6.00289C30.6919 6.00289 32.3802 6.4406 33.8559 7.31602C35.3566 8.16643 36.5322 9.3545 37.3826 10.8802C38.233 12.381 38.6582 14.0818 38.6582 15.9827C38.6582 17.9086 38.233 19.6219 37.3826 21.1227C36.5322 22.6234 35.3566 23.8114 33.8559 24.6869C32.3802 25.5623 30.6919 26 28.791 26ZM28.791 21.6479C29.8165 21.6479 30.7169 21.4103 31.4923 20.9351C32.2927 20.4348 32.9055 19.7595 33.3307 18.9091C33.7559 18.0587 33.9685 17.0832 33.9685 15.9827C33.9685 14.8822 33.7559 13.9067 33.3307 13.0563C32.9055 12.2059 32.2927 11.5431 31.4923 11.0678C30.7169 10.5926 29.8165 10.355 28.791 10.355C27.7405 10.355 26.8275 10.5926 26.0522 11.0678C25.2768 11.5431 24.6765 12.2059 24.2513 13.0563C23.8261 13.9067 23.6135 14.8822 23.6135 15.9827C23.6135 17.0832 23.8261 18.0587 24.2513 18.9091C24.6765 19.7595 25.2768 20.4348 26.0522 20.9351C26.8275 21.4103 27.7405 21.6479 28.791 21.6479Z" fill="black"/>
    <path d="M44.0822 24.4618C44.7325 25.1121 45.5329 25.4372 46.4834 25.4372H51.5858V21.3102H48.0216V0H39.5801V3.56421H43.1068V22.0606C43.1068 23.0111 43.4319 23.8114 44.0822 24.4618Z" fill="black"/>
    <path fill-rule="evenodd" clip-rule="evenodd" d="M63.9249 26C62.024 26 60.3106 25.5623 58.7849 24.6869C57.2842 23.8114 56.0961 22.6234 55.2207 21.1227C54.3703 19.6219 53.9451 17.9086 53.9451 15.9827C53.9451 14.0317 54.3828 12.3059 55.2582 10.8052C56.1336 9.30447 57.2967 8.12891 58.7474 7.2785C60.1981 6.42809 61.7738 6.00289 63.4746 6.00289C64.9253 6.00289 66.2885 6.30303 67.5641 6.90332C68.8397 7.50361 69.9403 8.34151 70.8657 9.41703C71.8162 10.4925 72.5165 11.7306 72.9667 13.1313L59.5362 19.8937C60.0497 20.5553 60.6497 21.0525 61.3361 21.3853C62.1615 21.7855 62.9869 21.9856 63.8123 21.9856C64.7127 21.9856 65.5882 21.773 66.4386 21.3478C67.289 20.8975 67.9518 20.2597 68.427 19.4343H73.1543C72.479 21.4603 71.3159 23.0611 69.6651 24.2367C68.0393 25.4122 66.1259 26 63.9249 26ZM58.4097 15.9452C58.4097 16.1273 58.4141 16.3051 58.4227 16.4786L67.4919 11.8607C67.4187 11.765 67.3427 11.6758 67.264 11.5931C66.7637 11.0428 66.2135 10.6676 65.6132 10.4675C65.0129 10.2424 64.4001 10.1299 63.7748 10.1299C62.7993 10.1299 61.9114 10.355 61.111 10.8052C60.3106 11.2554 59.6603 11.9182 59.1601 12.7937C58.6598 13.6441 58.4097 14.6946 58.4097 15.9452Z" fill="black"/>
    <path d="M86.6942 20.86C86.4691 21.1602 86.1064 21.3102 85.6062 21.3102H77.0521V25.4372H86.4316C88.0824 25.4372 89.383 24.912 90.3335 23.8615C91.2839 22.811 91.7591 21.3978 91.7591 19.6219C91.7591 17.8211 91.2714 16.3829 90.2959 15.3074C89.3455 14.2068 88.0574 13.6566 86.4316 13.6566H82.0045C81.5292 13.6566 81.1665 13.5315 80.9164 13.2814C80.6913 13.0063 80.5788 12.6186 80.5788 12.1183C80.5788 11.5681 80.7038 11.1679 80.9539 10.9177C81.2041 10.6426 81.5542 10.5051 82.0045 10.5051H90.2959V6.37807H81.4042C79.7033 6.37807 78.3527 6.89081 77.3522 7.91631C76.3767 8.91679 75.889 10.2799 75.889 12.0058C75.889 13.7566 76.3767 15.1573 77.3522 16.2078C78.3527 17.2333 79.7033 17.746 81.4042 17.746H85.6062C86.1064 17.746 86.4691 17.8961 86.6942 18.1962C86.9443 18.4714 87.0694 18.9091 87.0694 19.5094C87.0694 20.1097 86.9443 20.5599 86.6942 20.86Z" fill="black"/>
    <path fill-rule="evenodd" clip-rule="evenodd" d="M103.659 26C102.009 26 100.495 25.5623 99.1197 24.6869C97.744 23.7864 96.6435 22.5859 95.8181 21.0851C94.9927 19.5844 94.58 17.8836 94.58 15.9827C94.58 14.0818 94.9927 12.381 95.8181 10.8802C96.6435 9.3545 97.744 8.16643 99.1197 7.31602C100.52 6.4406 102.046 6.00289 103.697 6.00289C105.048 6.00289 106.211 6.29052 107.186 6.8658C108.187 7.41607 108.949 8.15392 109.475 9.07936H109.925V6.37807H114.652V25.4372H109.925V22.6984H109.475C108.974 23.6489 108.224 24.4367 107.224 25.062C106.248 25.6874 105.06 26 103.659 26ZM109.512 13.8066C109.785 14.4767 109.923 15.196 109.925 15.9645C109.923 16.7825 109.785 17.5389 109.512 18.2338C109.237 18.9091 108.862 19.4969 108.387 19.9971C107.911 20.4974 107.349 20.885 106.698 21.1602C106.073 21.4353 105.373 21.5729 104.597 21.5729C103.597 21.5729 102.696 21.3353 101.896 20.86C101.096 20.3598 100.458 19.697 99.9826 18.8716C99.5324 18.0212 99.3073 17.0582 99.3073 15.9827C99.3073 14.9072 99.5324 13.9567 99.9826 13.1313C100.458 12.3059 101.096 11.6556 101.896 11.1804C102.696 10.6801 103.597 10.43 104.597 10.43C105.373 10.43 106.073 10.5676 106.698 10.8427C107.349 11.1178 107.911 11.5055 108.387 12.0058C108.862 12.506 109.237 13.1063 109.512 13.8066Z" fill="black"/>
    <path d="M139.11 6.37807L133.706 13.6566H131.794V0H126.916V25.4372H131.794V17.2583H133.7L139.11 25.4372H144.25V24.8745L137.451 15.3002L144.175 6.90332V6.37807H139.11Z" fill="black"/>
    <path d="M156.439 10.5051L147.334 21.3102V25.4372H161.741V21.3102H152.575L161.741 10.5051V6.37807H147.334V10.5051H156.439Z" fill="black"/>
    <path d="M118.529 21.3102V25.4372H123.182V21.3102H118.529Z" fill="black"/>
</svg>
